<svg width="2052" height="540" viewBox="0 0 2052 540" fill="none" xmlns="http://www.w3.org/2000/svg">
<rect x="250" y="432" width="40" height="54" rx="5" fill="white"/>
<path d="M272.093 346.742C271.052 345.356 268.948 345.356 267.907 346.742C250.587 369.795 224.397 385.816 194.111 391.101C192.898 391.312 192 392.358 192 393.589V483.5C192 484.881 190.881 486 189.5 486H154.5C153.119 486 152 484.881 152 483.5V393.589C152 392.358 151.098 391.312 149.886 391.1C95.2863 381.571 54 337.148 54 279.537C54 176.172 156.011 70.0449 170.336 55.6508C171.289 54.6938 172.755 54.7372 173.707 55.6945C183.852 65.8934 236.821 120.944 267.659 188.49C268.567 190.478 271.433 190.478 272.341 188.49C303.179 120.944 356.148 65.8934 366.293 55.6945C367.245 54.7372 368.711 54.6938 369.664 55.6509C383.989 70.045 486 176.172 486 279.537C486 337.148 444.714 381.571 390.114 391.1C388.902 391.312 388 392.358 388 393.589V483.5C388 484.881 386.881 486 385.5 486H350.5C349.119 486 348 484.881 348 483.5V393.589C348 392.358 347.102 391.312 345.889 391.101C315.603 385.816 289.413 369.795 272.093 346.742Z" fill="white"/>
<path d="M660.176 347.962V294.786H613.687V347.962C613.687 350.689 612.24 352.052 609.25 352.052H582.051C579.35 352.052 578 350.689 578 347.962V217.36C578 215.12 579.35 213.172 582.051 213.172H609.829C611.372 213.172 613.687 213.757 613.687 217.165V261.77H660.176V217.36C660.176 215.12 661.527 213.172 664.227 213.172H692.005C693.548 213.172 695.863 213.757 695.863 217.165V347.962C695.863 350.689 694.416 352.052 691.426 352.052H664.227C661.527 352.052 660.176 350.689 660.176 347.962Z" fill="white"/>
<path d="M718.577 292.741C718.577 258.849 745.873 231.579 779.534 231.579C813.292 231.579 840.588 259.043 840.588 292.741C840.588 326.536 813.099 354 779.534 354C745.873 354 718.577 326.633 718.577 292.741ZM752.528 292.741C752.528 308.713 763.427 322.445 779.534 322.445C795.642 322.445 806.444 308.518 806.444 292.741C806.444 276.866 795.738 263.134 779.631 263.134C763.524 263.134 752.528 276.769 752.528 292.741Z" fill="white"/>
<path d="M914.156 265.958H898.627V347.962C898.627 350.689 897.277 352.052 894.48 352.052H866.798C864.098 352.052 862.748 350.689 862.748 347.962V265.958H849.823C847.315 265.958 846.061 264.692 846.061 262.16V236.936C846.061 234.696 847.412 233.235 849.823 233.235H862.748V214.049C862.748 211.322 863.519 209.763 867.281 208.497L891.49 200.414C895.251 199.148 898.627 200.901 898.627 205.868V233.235H914.156C916.567 233.235 917.821 235.085 917.821 236.936V262.16C917.821 264.692 916.567 265.958 914.156 265.958Z" fill="white"/>
<path d="M1014.71 313.777C1015.96 312.706 1018.37 312.317 1019.82 314.264L1031.68 330.821C1033.61 333.45 1033.71 335.301 1031.49 337.151C1015.96 350.981 1001.4 354 987.121 354C955.099 354 926.55 326.633 926.55 292.838C926.55 259.141 950.855 231.677 986.157 231.677C1008.15 231.677 1041.04 248.817 1041.04 292.059C1041.04 302.188 1037.28 303.843 1027.24 303.843H960.501C963.78 316.504 974.582 324.49 986.928 324.49C1004.48 324.49 1009.11 318.16 1014.71 313.777ZM985.096 259.92C974.582 259.92 966.384 267.614 962.333 277.158H1009.11C1004.19 266.153 995.802 259.92 985.096 259.92Z" fill="white"/>
<path d="M1061.33 347.67V202.459C1061.33 199.44 1063.26 198.077 1065.86 198.077H1092.1C1094.7 198.077 1096.53 199.83 1096.53 202.459V347.67C1096.53 350.299 1094.89 352.052 1092.1 352.052H1065.86C1063.06 352.052 1061.33 350.689 1061.33 347.67Z" fill="white"/>
<path d="M1178.73 347.962V217.36C1178.73 214.633 1180.47 213.172 1182.69 213.172H1242.1C1267.56 213.172 1284.93 235.864 1284.93 258.654C1284.93 281.151 1267.95 303.551 1242.78 303.551H1214.42V347.962C1214.42 350.689 1212.97 352.052 1210.18 352.052H1182.69C1180.08 352.052 1178.73 350.689 1178.73 347.962ZM1234.39 242.877H1214.42V274.042H1234.39C1243.36 274.042 1248.56 266.348 1248.56 258.459C1248.56 250.96 1243.26 242.877 1234.39 242.877Z" fill="white"/>
<path d="M1293.49 292.741C1293.49 258.849 1320.78 231.579 1354.44 231.579C1388.2 231.579 1415.5 259.043 1415.5 292.741C1415.5 326.536 1388.01 354 1354.44 354C1320.78 354 1293.49 326.633 1293.49 292.741ZM1327.44 292.741C1327.44 308.713 1338.34 322.445 1354.44 322.445C1370.55 322.445 1381.35 308.518 1381.35 292.741C1381.35 276.866 1370.65 263.134 1354.54 263.134C1338.43 263.134 1327.44 276.769 1327.44 292.741Z" fill="white"/>
<path d="M1504.21 347.767V285.144C1504.21 272.97 1496.88 264.595 1486.46 264.595C1476.04 264.595 1469 272.678 1469 285.144V347.67C1469.1 350.689 1467.36 352.052 1464.57 352.052H1437.85C1434.96 352.052 1433.51 350.591 1433.51 347.67V236.936C1433.51 234.014 1434.96 232.553 1437.85 232.553H1454.73C1457.72 232.553 1460.61 235.085 1461.38 237.91L1463.99 248.428C1472.57 236.059 1483.86 231.384 1497.07 231.384C1507.58 231.384 1521.18 235.28 1529.48 249.402C1538.83 237.715 1551.56 231.384 1565.16 231.384C1594.39 231.384 1608.37 255.927 1608.37 285.534V347.767C1608.37 350.591 1606.93 352.052 1604.03 352.052H1577.9C1575.1 352.052 1573.65 350.591 1573.65 347.767V285.242C1573.65 273.068 1567.48 264.692 1556.87 264.692C1546.26 264.692 1538.83 272.873 1538.83 285.242L1538.93 347.767C1538.93 350.591 1537.48 352.052 1534.69 352.052H1508.45C1505.65 352.052 1504.21 350.591 1504.21 347.767Z" fill="white"/>
<path d="M1715.3 313.777C1716.56 312.706 1718.97 312.317 1720.41 314.264L1732.28 330.821C1734.21 333.45 1734.3 335.301 1732.08 337.151C1716.56 350.981 1701.99 354 1687.72 354C1655.7 354 1627.15 326.633 1627.15 292.838C1627.15 259.141 1651.45 231.677 1686.75 231.677C1708.74 231.677 1741.63 248.817 1741.63 292.059C1741.63 302.188 1737.87 303.843 1727.84 303.843H1661.1C1664.38 316.504 1675.18 324.49 1687.52 324.49C1705.08 324.49 1709.71 318.16 1715.3 313.777ZM1685.69 259.92C1675.18 259.92 1666.98 267.614 1662.93 277.158H1709.71C1704.79 266.153 1696.4 259.92 1685.69 259.92Z" fill="white"/>
<path d="M1761.92 347.67V202.459C1761.92 199.44 1763.85 198.077 1766.46 198.077H1792.69C1795.3 198.077 1797.13 199.83 1797.13 202.459V347.67C1797.13 350.299 1795.49 352.052 1792.69 352.052H1766.46C1763.66 352.052 1761.92 350.689 1761.92 347.67Z" fill="white"/>
<path d="M1819.16 347.962V236.838C1819.16 234.111 1821.28 232.748 1823.21 232.748H1850.7C1853.01 232.748 1854.75 234.403 1854.75 236.838V347.962C1854.75 350.689 1853.4 352.052 1850.7 352.052H1823.21C1820.51 352.052 1819.16 350.689 1819.16 347.962ZM1819.06 211.614V193.791C1819.06 189.409 1820.99 186 1826.68 186H1847.9C1852.91 186 1854.84 189.019 1854.84 193.791V211.517C1854.84 216.873 1852.43 218.334 1847.9 218.334H1826.68C1822.15 218.334 1819.06 216.97 1819.06 211.614Z" fill="white"/>
<path d="M1998 236.936V347.864C1998 350.689 1996.65 352.052 1993.85 352.052H1972.73C1968.87 352.052 1966.94 346.014 1965.88 343.19L1964.63 339.878C1956.14 348.838 1945.14 354 1932.7 354C1901.45 354 1873.29 329.555 1873.29 292.838C1873.29 258.946 1899.14 231.482 1932.7 231.482C1946.98 231.482 1958.17 237.52 1966.36 247.259L1970.03 236.936C1971.09 233.917 1971.48 232.748 1974.18 232.748H1993.85C1996.65 232.748 1998 234.111 1998 236.936ZM1962.6 292.643C1962.6 276.769 1950.26 263.134 1934.34 263.134C1919.68 263.134 1906.66 275.113 1906.66 292.643C1906.66 309.492 1918.52 322.153 1934.34 322.153C1950.26 322.153 1962.6 308.616 1962.6 292.643Z" fill="white"/>
</svg>
