<svg width="32" height="32" viewBox="0 0 32 32" fill="none" xmlns="http://www.w3.org/2000/svg">
<path d="M2.66663 10.6667C2.66663 9.25222 3.22853 7.89567 4.22872 6.89547C5.22892 5.89528 6.58547 5.33337 7.99996 5.33337H24C25.4144 5.33337 26.771 5.89528 27.7712 6.89547C28.7714 7.89567 29.3333 9.25222 29.3333 10.6667V21.3334C29.3333 22.7479 28.7714 24.1044 27.7712 25.1046C26.771 26.1048 25.4144 26.6667 24 26.6667H7.99996C6.58547 26.6667 5.22892 26.1048 4.22872 25.1046C3.22853 24.1044 2.66663 22.7479 2.66663 21.3334V10.6667Z" stroke="white" stroke-width="2" stroke-linecap="round" stroke-linejoin="round"/>
<path d="M13.3333 12L19.9999 16L13.3333 20V12Z" stroke="white" stroke-width="2" stroke-linecap="round" stroke-linejoin="round"/>
</svg>
