<svg width="32" height="32" viewBox="0 0 32 32" fill="none" xmlns="http://www.w3.org/2000/svg">
<path d="M4 9.8325C4 8.28562 4.61449 6.80211 5.7083 5.7083C6.80211 4.61449 8.28562 4 9.8325 4H21.4975C23.0444 4 24.5279 4.61449 25.6217 5.7083C26.7155 6.80211 27.33 8.28562 27.33 9.8325V21.4975C27.33 23.0444 26.7155 24.5279 25.6217 25.6217C24.5279 26.7155 23.0444 27.33 21.4975 27.33H9.8325C8.28562 27.33 6.80211 26.7155 5.7083 25.6217C4.61449 24.5279 4 23.0444 4 21.4975V9.8325Z" stroke="white" stroke-width="2" stroke-linecap="round" stroke-linejoin="round"/>
<path d="M22.2265 9.10339V9.11798M11.2905 15.665C11.2905 16.8251 11.7514 17.9378 12.5718 18.7581C13.3921 19.5785 14.5047 20.0393 15.6649 20.0393C16.8251 20.0393 17.9377 19.5785 18.7581 18.7581C19.5784 17.9378 20.0393 16.8251 20.0393 15.665C20.0393 14.5048 19.5784 13.3922 18.7581 12.5718C17.9377 11.7515 16.8251 11.2906 15.6649 11.2906C14.5047 11.2906 13.3921 11.7515 12.5718 12.5718C11.7514 13.3922 11.2905 14.5048 11.2905 15.665Z" stroke="white" stroke-width="2" stroke-linecap="round" stroke-linejoin="round"/>
</svg>
